<svg xmlns="http://www.w3.org/2000/svg" viewBox="0 0 39.22 43.33"><defs><style>.cls-1{fill:#b5c428;}.cls-2{fill:#74a333;}</style></defs><title>Asset 1</title><g id="Layer_2" data-name="Layer 2"><g id="Layer_1-2" data-name="Layer 1"><path class="cls-1" d="M16.23,20.77s-4.3-5.23-4.41-11a14.79,14.79,0,0,1,4-9.81s4.31,5.23,4.42,11a14.74,14.74,0,0,1-4,9.81"/><path class="cls-2" d="M23.2,12.85a2.74,2.74,0,1,0,2.74-2.74,2.74,2.74,0,0,0-2.74,2.74m16,1.37s.49,11.57-5.27,19.49-15.61,9.23-15.61,9.23-.49-11.56,5.27-19.49,15.61-9.23,15.61-9.23"/><path class="cls-1" d="M16.05,32.67v-.09h0c0-2.26-.4-9.18-4.06-14.22C7.56,12.27,0,11.27,0,11.27s-.38,8.88,4.05,15A18.74,18.74,0,0,0,14.4,33v9.54a.83.83,0,0,0,1.65,0V32.67"/></g></g></svg>